<svg xmlns="http://www.w3.org/2000/svg" xmlns:xlink="http://www.w3.org/1999/xlink" contentStyleType="text/css" data-diagram-type="CLASS" height="1747.9167px" preserveAspectRatio="none" style="width:786px;height:1747px;" version="1.1" viewBox="0 0 786 1747" width="786.4583px" zoomAndPan="magnify"><title>HỆ THỐNG QUẢN LÝ SINH VIÊN (MongoDB V2)</title><defs><linearGradient id="gipy9bulphxnp0" x1="50%" x2="50%" y1="0%" y2="100%"><stop offset="0%" stop-color="#B8B8B8"/><stop offset="100%" stop-color="#999999"/></linearGradient><linearGradient id="gipy9bulphxnp1" x1="50%" x2="50%" y1="0%" y2="100%"><stop offset="0%" stop-color="#7C9AB9"/><stop offset="100%" stop-color="#304D6D"/></linearGradient><linearGradient id="gipy9bulphxnp2" x1="50%" x2="50%" y1="0%" y2="100%"><stop offset="0%" stop-color="#7C9AB9"/><stop offset="100%" stop-color="#446E9B"/></linearGradient></defs><g><g class="title" data-source-line="2"><rect fill="url(#gipy9bulphxnp0)" height="47.168" rx="4.1667" ry="4.1667" style="stroke:#6B6B6B;stroke-width:1.0417;" width="560.9009" x="108.2916" y="20.8333"/><text fill="#304D6D" font-family="'Verdana'" font-size="20.8333" font-weight="bold" lengthAdjust="spacing" textLength="537.9842" x="119.75" y="51.6296">HỆ THỐNG QUẢN LÝ SINH VIÊN (MongoDB V2)</text></g><!--class users--><g class="entity" data-entity="users" data-source-line="4" data-uid="ent0002" id="entity_users"><rect fill="url(#gipy9bulphxnp1)" height="335.8968" rx="4.1667" ry="4.1667" style="stroke:#304D6D;stroke-width:1.0417;" width="212.4379" x="288.0208" y="320.0846"/><rect fill="url(#gipy9bulphxnp2)" height="34.1715" rx="4.1667" ry="4.1667" style="stroke:url(#gipy9bulphxnp2);stroke-width:1.0417;" width="212.4379" x="288.0208" y="320.0846"/><rect fill="url(#gipy9bulphxnp2)" height="4.1667" style="stroke:url(#gipy9bulphxnp2);stroke-width:1.0417;" width="212.4379" x="288.0208" y="350.0895"/><rect fill="none" height="335.8968" rx="4.1667" ry="4.1667" style="stroke:#304D6D;stroke-width:1.0417;" width="212.4379" x="288.0208" y="320.0846"/><ellipse cx="369.3837" cy="337.1704" fill="none" rx="10.4167" ry="10.4167" style="stroke:#304D6D;stroke-width:1.0417;"/><path d="M371.9228,341.8579 L366.2425,341.8579 L366.2425,332.7433 L371.9228,332.7433 L371.9228,334.3384 L368.0491,334.3384 L368.0491,336.2915 L371.5485,336.2915 L371.5485,337.8866 L368.0491,337.8866 L368.0491,340.2629 L371.9228,340.2629 L371.9228,341.8579 Z " fill="#FFFFFF"/><text fill="#EEEEEE" font-family="'Verdana'" font-size="11.4583" lengthAdjust="spacing" textLength="30.9621" x="394.3837" y="341.1372">users</text><line style="stroke:#304D6D;stroke-width:1.0417;" x1="289.0625" x2="499.4171" y1="354.2562" y2="354.2562"/><ellipse cx="299.4792" cy="371.8628" fill="none" rx="3.125" ry="3.125" style="stroke:#304D6D;stroke-width:1.0417;"/><text fill="#EEEEEE" font-family="'Verdana'" font-size="11.4583" lengthAdjust="spacing" textLength="75.3016" x="313.0208" y="374.2671">_id : ObjectId</text><line style="stroke:#304D6D;stroke-width:1.0417;" x1="289.0625" x2="499.4171" y1="386.3444" y2="386.3444"/><text fill="#EEEEEE" font-family="'Verdana'" font-size="11.4583" lengthAdjust="spacing" textLength="102.8285" x="299.4792" y="406.3553">username : String</text><text fill="#EEEEEE" font-family="'Verdana'" font-size="11.4583" lengthAdjust="spacing" textLength="99.9415" x="299.4792" y="430.1102">password : String</text><text fill="#EEEEEE" font-family="'Verdana'" font-size="11.4583" lengthAdjust="spacing" textLength="189.5213" x="299.4792" y="453.8651">role : "admin | teacher | student"</text><text fill="#EEEEEE" font-family="'Verdana'" font-size="11.4583" lengthAdjust="spacing" textLength="84.1471" x="299.4792" y="477.6199">ho_ten : String</text><text fill="#EEEEEE" font-family="'Verdana'" font-size="11.4583" lengthAdjust="spacing" textLength="76.9409" x="299.4792" y="501.3748">email : String</text><text fill="#EEEEEE" font-family="'Verdana'" font-size="11.4583" lengthAdjust="spacing" textLength="63.0768" x="299.4792" y="525.1297">sdt : String</text><text fill="#EEEEEE" font-family="'Verdana'" font-size="11.4583" lengthAdjust="spacing" textLength="96.2769" x="299.4792" y="548.8846">ngay_sinh : Date</text><text fill="#EEEEEE" font-family="'Verdana'" font-size="11.4583" lengthAdjust="spacing" textLength="85.2941" x="299.4792" y="572.6395">dia_chi : String</text><text fill="#EEEEEE" font-family="'Verdana'" font-size="11.4583" lengthAdjust="spacing" textLength="93.9214" x="299.4792" y="596.3943">gioi_tinh : String</text><text fill="#EEEEEE" font-family="'Verdana'" font-size="11.4583" lengthAdjust="spacing" textLength="99.673" x="299.4792" y="620.1492">created_at : Date</text><text fill="#EEEEEE" font-family="'Verdana'" font-size="11.4583" lengthAdjust="spacing" textLength="103.4215" x="299.4792" y="643.9041">updated_at : Date</text></g><!--class faculties--><g class="entity" data-entity="faculties" data-source-line="20" data-uid="ent0003" id="entity_faculties"><rect fill="url(#gipy9bulphxnp1)" height="169.6126" rx="4.1667" ry="4.1667" style="stroke:#304D6D;stroke-width:1.0417;" width="126.3382" x="88.5417" y="86.7513"/><rect fill="url(#gipy9bulphxnp2)" height="34.1715" rx="4.1667" ry="4.1667" style="stroke:url(#gipy9bulphxnp2);stroke-width:1.0417;" width="126.3382" x="88.5417" y="86.7513"/><rect fill="url(#gipy9bulphxnp2)" height="4.1667" style="stroke:url(#gipy9bulphxnp2);stroke-width:1.0417;" width="126.3382" x="88.5417" y="116.7562"/><rect fill="none" height="169.6126" rx="4.1667" ry="4.1667" style="stroke:#304D6D;stroke-width:1.0417;" width="126.3382" x="88.5417" y="86.7513"/><ellipse cx="119.4038" cy="103.8371" fill="none" rx="10.4167" ry="10.4167" style="stroke:#304D6D;stroke-width:1.0417;"/><path d="M121.9428,108.5246 L116.2625,108.5246 L116.2625,99.41 L121.9428,99.41 L121.9428,101.005 L118.0691,101.005 L118.0691,102.9582 L121.5685,102.9582 L121.5685,104.5532 L118.0691,104.5532 L118.0691,106.9295 L121.9428,106.9295 L121.9428,108.5246 Z " fill="#FFFFFF"/><text fill="#EEEEEE" font-family="'Verdana'" font-size="11.4583" lengthAdjust="spacing" textLength="48.4965" x="141.7713" y="107.8039">faculties</text><line style="stroke:#304D6D;stroke-width:1.0417;" x1="89.5833" x2="213.8382" y1="120.9229" y2="120.9229"/><ellipse cx="100" cy="138.5295" fill="none" rx="3.125" ry="3.125" style="stroke:#304D6D;stroke-width:1.0417;"/><text fill="#EEEEEE" font-family="'Verdana'" font-size="11.4583" lengthAdjust="spacing" textLength="75.3016" x="113.5417" y="140.9337">_id : ObjectId</text><line style="stroke:#304D6D;stroke-width:1.0417;" x1="89.5833" x2="213.8382" y1="153.0111" y2="153.0111"/><text fill="#EEEEEE" font-family="'Verdana'" font-size="11.4583" lengthAdjust="spacing" textLength="97.8043" x="100" y="173.022">ten_khoa : String</text><text fill="#EEEEEE" font-family="'Verdana'" font-size="11.4583" lengthAdjust="spacing" textLength="80.7566" x="100" y="196.7768">mo_ta : String</text><text fill="#EEEEEE" font-family="'Verdana'" font-size="11.4583" lengthAdjust="spacing" textLength="99.673" x="100" y="220.5317">created_at : Date</text><text fill="#EEEEEE" font-family="'Verdana'" font-size="11.4583" lengthAdjust="spacing" textLength="103.4215" x="100" y="244.2866">updated_at : Date</text></g><!--class majors--><g class="entity" data-entity="majors" data-source-line="29" data-uid="ent0004" id="entity_majors"><rect fill="url(#gipy9bulphxnp1)" height="193.3675" rx="4.1667" ry="4.1667" style="stroke:#304D6D;stroke-width:1.0417;" width="128.8727" x="86.9792" y="390.918"/><rect fill="url(#gipy9bulphxnp2)" height="34.1715" rx="4.1667" ry="4.1667" style="stroke:url(#gipy9bulphxnp2);stroke-width:1.0417;" width="128.8727" x="86.9792" y="390.918"/><rect fill="url(#gipy9bulphxnp2)" height="4.1667" style="stroke:url(#gipy9bulphxnp2);stroke-width:1.0417;" width="128.8727" x="86.9792" y="420.9229"/><rect fill="none" height="193.3675" rx="4.1667" ry="4.1667" style="stroke:#304D6D;stroke-width:1.0417;" width="128.8727" x="86.9792" y="390.918"/><ellipse cx="123.2291" cy="408.0037" fill="none" rx="10.4167" ry="10.4167" style="stroke:#304D6D;stroke-width:1.0417;"/><path d="M125.7682,412.6912 L120.0879,412.6912 L120.0879,403.5767 L125.7682,403.5767 L125.7682,405.1717 L121.8945,405.1717 L121.8945,407.1248 L125.3939,407.1248 L125.3939,408.7199 L121.8945,408.7199 L121.8945,411.0962 L125.7682,411.0962 L125.7682,412.6912 Z " fill="#FFFFFF"/><text fill="#EEEEEE" font-family="'Verdana'" font-size="11.4583" lengthAdjust="spacing" textLength="39.0579" x="146.794" y="411.9705">majors</text><line style="stroke:#304D6D;stroke-width:1.0417;" x1="88.0208" x2="214.8102" y1="425.0895" y2="425.0895"/><ellipse cx="98.4375" cy="442.6961" fill="none" rx="3.125" ry="3.125" style="stroke:#304D6D;stroke-width:1.0417;"/><text fill="#EEEEEE" font-family="'Verdana'" font-size="11.4583" lengthAdjust="spacing" textLength="75.3016" x="111.9792" y="445.1004">_id : ObjectId</text><line style="stroke:#304D6D;stroke-width:1.0417;" x1="88.0208" x2="214.8102" y1="457.1777" y2="457.1777"/><text fill="#EEEEEE" font-family="'Verdana'" font-size="11.4583" lengthAdjust="spacing" textLength="105.956" x="98.4375" y="477.1886">ten_nganh : String</text><text fill="#EEEEEE" font-family="'Verdana'" font-size="11.4583" lengthAdjust="spacing" textLength="103.2313" x="98.4375" y="500.9435">khoa_id : ObjectId</text><text fill="#EEEEEE" font-family="'Verdana'" font-size="11.4583" lengthAdjust="spacing" textLength="80.7566" x="98.4375" y="524.6984">mo_ta : String</text><text fill="#EEEEEE" font-family="'Verdana'" font-size="11.4583" lengthAdjust="spacing" textLength="99.673" x="98.4375" y="548.4533">created_at : Date</text><text fill="#EEEEEE" font-family="'Verdana'" font-size="11.4583" lengthAdjust="spacing" textLength="103.4215" x="98.4375" y="572.2082">updated_at : Date</text></g><!--class classes--><g class="entity" data-entity="classes" data-source-line="39" data-uid="ent0005" id="entity_classes"><rect fill="url(#gipy9bulphxnp1)" height="240.8773" rx="4.1667" ry="4.1667" style="stroke:#304D6D;stroke-width:1.0417;" width="189.1408" x="299.4792" y="744.043"/><rect fill="url(#gipy9bulphxnp2)" height="34.1715" rx="4.1667" ry="4.1667" style="stroke:url(#gipy9bulphxnp2);stroke-width:1.0417;" width="189.1408" x="299.4792" y="744.043"/><rect fill="url(#gipy9bulphxnp2)" height="4.1667" style="stroke:url(#gipy9bulphxnp2);stroke-width:1.0417;" width="189.1408" x="299.4792" y="774.0479"/><rect fill="none" height="240.8773" rx="4.1667" ry="4.1667" style="stroke:#304D6D;stroke-width:1.0417;" width="189.1408" x="299.4792" y="744.043"/><ellipse cx="363.9427" cy="761.1287" fill="none" rx="10.4167" ry="10.4167" style="stroke:#304D6D;stroke-width:1.0417;"/><path d="M366.4818,765.8162 L360.8014,765.8162 L360.8014,756.7017 L366.4818,756.7017 L366.4818,758.2967 L362.6081,758.2967 L362.6081,760.2498 L366.1074,760.2498 L366.1074,761.8449 L362.6081,761.8449 L362.6081,764.2212 L366.4818,764.2212 L366.4818,765.8162 Z " fill="#FFFFFF"/><text fill="#EEEEEE" font-family="'Verdana'" font-size="11.4583" lengthAdjust="spacing" textLength="41.4637" x="388.9427" y="765.0955">classes</text><line style="stroke:#304D6D;stroke-width:1.0417;" x1="300.5208" x2="487.5783" y1="778.2145" y2="778.2145"/><ellipse cx="310.9375" cy="795.8211" fill="none" rx="3.125" ry="3.125" style="stroke:#304D6D;stroke-width:1.0417;"/><text fill="#EEEEEE" font-family="'Verdana'" font-size="11.4583" lengthAdjust="spacing" textLength="75.3016" x="324.4792" y="798.2254">_id : ObjectId</text><line style="stroke:#304D6D;stroke-width:1.0417;" x1="300.5208" x2="487.5783" y1="810.3027" y2="810.3027"/><text fill="#EEEEEE" font-family="'Verdana'" font-size="11.4583" lengthAdjust="spacing" textLength="87.3418" x="310.9375" y="830.3136">ten_lop : String</text><text fill="#EEEEEE" font-family="'Verdana'" font-size="11.4583" lengthAdjust="spacing" textLength="103.2313" x="310.9375" y="854.0685">khoa_id : ObjectId</text><text fill="#EEEEEE" font-family="'Verdana'" font-size="11.4583" lengthAdjust="spacing" textLength="111.3831" x="310.9375" y="877.8234">nganh_id : ObjectId</text><text fill="#EEEEEE" font-family="'Verdana'" font-size="11.4583" lengthAdjust="spacing" textLength="166.2242" x="310.9375" y="901.5783">co_van_hoc_tap_id : ObjectId</text><text fill="#EEEEEE" font-family="'Verdana'" font-size="11.4583" lengthAdjust="spacing" textLength="99.5722" x="310.9375" y="925.3332">khoa_hoc : String</text><text fill="#EEEEEE" font-family="'Verdana'" font-size="11.4583" lengthAdjust="spacing" textLength="99.673" x="310.9375" y="949.088">created_at : Date</text><text fill="#EEEEEE" font-family="'Verdana'" font-size="11.4583" lengthAdjust="spacing" textLength="103.4215" x="310.9375" y="972.8429">updated_at : Date</text></g><!--class subjects--><g class="entity" data-entity="subjects" data-source-line="51" data-uid="ent0006" id="entity_subjects"><rect fill="url(#gipy9bulphxnp1)" height="217.1224" rx="4.1667" ry="4.1667" style="stroke:#304D6D;stroke-width:1.0417;" width="136.2132" x="526.0417" y="756.0221"/><rect fill="url(#gipy9bulphxnp2)" height="34.1715" rx="4.1667" ry="4.1667" style="stroke:url(#gipy9bulphxnp2);stroke-width:1.0417;" width="136.2132" x="526.0417" y="756.0221"/><rect fill="url(#gipy9bulphxnp2)" height="4.1667" style="stroke:url(#gipy9bulphxnp2);stroke-width:1.0417;" width="136.2132" x="526.0417" y="786.027"/><rect fill="none" height="217.1224" rx="4.1667" ry="4.1667" style="stroke:#304D6D;stroke-width:1.0417;" width="136.2132" x="526.0417" y="756.0221"/><ellipse cx="561.7957" cy="773.1079" fill="none" rx="10.4167" ry="10.4167" style="stroke:#304D6D;stroke-width:1.0417;"/><path d="M564.3347,777.7954 L558.6544,777.7954 L558.6544,768.6808 L564.3347,768.6808 L564.3347,770.2759 L560.461,770.2759 L560.461,772.229 L563.9604,772.229 L563.9604,773.8241 L560.461,773.8241 L560.461,776.2004 L564.3347,776.2004 L564.3347,777.7954 Z " fill="#FFFFFF"/><text fill="#EEEEEE" font-family="'Verdana'" font-size="11.4583" lengthAdjust="spacing" textLength="47.5006" x="585.2502" y="777.0747">subjects</text><line style="stroke:#304D6D;stroke-width:1.0417;" x1="527.0833" x2="661.2132" y1="790.1937" y2="790.1937"/><ellipse cx="537.5" cy="807.8003" fill="none" rx="3.125" ry="3.125" style="stroke:#304D6D;stroke-width:1.0417;"/><text fill="#EEEEEE" font-family="'Verdana'" font-size="11.4583" lengthAdjust="spacing" textLength="75.3016" x="551.0417" y="810.2046">_id : ObjectId</text><line style="stroke:#304D6D;stroke-width:1.0417;" x1="527.0833" x2="661.2132" y1="822.2819" y2="822.2819"/><text fill="#EEEEEE" font-family="'Verdana'" font-size="11.4583" lengthAdjust="spacing" textLength="95.3089" x="537.5" y="842.2928">ten_mon : String</text><text fill="#EEEEEE" font-family="'Verdana'" font-size="11.4583" lengthAdjust="spacing" textLength="113.2965" x="537.5" y="866.0477">so_tin_chi : Number</text><text fill="#EEEEEE" font-family="'Verdana'" font-size="11.4583" lengthAdjust="spacing" textLength="111.3831" x="537.5" y="889.8026">nganh_id : ObjectId</text><text fill="#EEEEEE" font-family="'Verdana'" font-size="11.4583" lengthAdjust="spacing" textLength="80.7566" x="537.5" y="913.5574">mo_ta : String</text><text fill="#EEEEEE" font-family="'Verdana'" font-size="11.4583" lengthAdjust="spacing" textLength="99.673" x="537.5" y="937.3123">created_at : Date</text><text fill="#EEEEEE" font-family="'Verdana'" font-size="11.4583" lengthAdjust="spacing" textLength="103.4215" x="537.5" y="961.0672">updated_at : Date</text></g><!--class student_study--><g class="entity" data-entity="student_study" data-source-line="62" data-uid="ent0007" id="entity_student_study"><rect fill="url(#gipy9bulphxnp1)" height="264.6322" rx="4.1667" ry="4.1667" style="stroke:#304D6D;stroke-width:1.0417;" width="147.4757" x="169.2708" y="1083.6263"/><rect fill="url(#gipy9bulphxnp2)" height="34.1715" rx="4.1667" ry="4.1667" style="stroke:url(#gipy9bulphxnp2);stroke-width:1.0417;" width="147.4757" x="169.2708" y="1083.6263"/><rect fill="url(#gipy9bulphxnp2)" height="4.1667" style="stroke:url(#gipy9bulphxnp2);stroke-width:1.0417;" width="147.4757" x="169.2708" y="1113.6312"/><rect fill="none" height="264.6322" rx="4.1667" ry="4.1667" style="stroke:#304D6D;stroke-width:1.0417;" width="147.4757" x="169.2708" y="1083.6263"/><ellipse cx="194.8785" cy="1100.7121" fill="none" rx="10.4167" ry="10.4167" style="stroke:#304D6D;stroke-width:1.0417;"/><path d="M197.4176,1105.3996 L191.7372,1105.3996 L191.7372,1096.285 L197.4176,1096.285 L197.4176,1097.88 L193.5439,1097.88 L193.5439,1099.8332 L197.0432,1099.8332 L197.0432,1101.4282 L193.5439,1101.4282 L193.5439,1103.8045 L197.4176,1103.8045 L197.4176,1105.3996 Z " fill="#FFFFFF"/><text fill="#EEEEEE" font-family="'Verdana'" font-size="11.4583" lengthAdjust="spacing" textLength="81.3105" x="216.0783" y="1104.6789">student_study</text><line style="stroke:#304D6D;stroke-width:1.0417;" x1="170.3125" x2="315.7049" y1="1117.7979" y2="1117.7979"/><ellipse cx="180.7292" cy="1135.4045" fill="none" rx="3.125" ry="3.125" style="stroke:#304D6D;stroke-width:1.0417;"/><text fill="#EEEEEE" font-family="'Verdana'" font-size="11.4583" lengthAdjust="spacing" textLength="75.3016" x="194.2708" y="1137.8087">_id : ObjectId</text><line style="stroke:#304D6D;stroke-width:1.0417;" x1="170.3125" x2="315.7049" y1="1149.8861" y2="1149.8861"/><text fill="#EEEEEE" font-family="'Verdana'" font-size="11.4583" lengthAdjust="spacing" textLength="119.104" x="180.7292" y="1169.897">student_id : ObjectId</text><text fill="#EEEEEE" font-family="'Verdana'" font-size="11.4583" lengthAdjust="spacing" textLength="103.746" x="180.7292" y="1193.6518">class_id : ObjectId</text><text fill="#EEEEEE" font-family="'Verdana'" font-size="11.4583" lengthAdjust="spacing" textLength="111.3831" x="180.7292" y="1217.4067">nganh_id : ObjectId</text><text fill="#EEEEEE" font-family="'Verdana'" font-size="11.4583" lengthAdjust="spacing" textLength="103.2313" x="180.7292" y="1241.1616">khoa_id : ObjectId</text><text fill="#EEEEEE" font-family="'Verdana'" font-size="11.4583" lengthAdjust="spacing" textLength="124.559" x="180.7292" y="1264.9165">khoa_dao_tao : String</text><text fill="#EEEEEE" font-family="'Verdana'" font-size="11.4583" lengthAdjust="spacing" textLength="103.7908" x="180.7292" y="1288.6714">trang_thai : String</text><text fill="#EEEEEE" font-family="'Verdana'" font-size="11.4583" lengthAdjust="spacing" textLength="99.673" x="180.7292" y="1312.4262">created_at : Date</text><text fill="#EEEEEE" font-family="'Verdana'" font-size="11.4583" lengthAdjust="spacing" textLength="103.4215" x="180.7292" y="1336.1811">updated_at : Date</text></g><!--class schedules--><g class="entity" data-entity="schedules" data-source-line="75" data-uid="ent0008" id="entity_schedules"><rect fill="url(#gipy9bulphxnp1)" height="335.8968" rx="4.1667" ry="4.1667" style="stroke:#304D6D;stroke-width:1.0417;" width="154.2623" x="517.1875" y="1048.2096"/><rect fill="url(#gipy9bulphxnp2)" height="34.1715" rx="4.1667" ry="4.1667" style="stroke:url(#gipy9bulphxnp2);stroke-width:1.0417;" width="154.2623" x="517.1875" y="1048.2096"/><rect fill="url(#gipy9bulphxnp2)" height="4.1667" style="stroke:url(#gipy9bulphxnp2);stroke-width:1.0417;" width="154.2623" x="517.1875" y="1078.2145"/><rect fill="none" height="335.8968" rx="4.1667" ry="4.1667" style="stroke:#304D6D;stroke-width:1.0417;" width="154.2623" x="517.1875" y="1048.2096"/><ellipse cx="556.645" cy="1065.2954" fill="none" rx="10.4167" ry="10.4167" style="stroke:#304D6D;stroke-width:1.0417;"/><path d="M559.1841,1069.9829 L553.5037,1069.9829 L553.5037,1060.8683 L559.1841,1060.8683 L559.1841,1062.4634 L555.3104,1062.4634 L555.3104,1064.4165 L558.8097,1064.4165 L558.8097,1066.0116 L555.3104,1066.0116 L555.3104,1068.3879 L559.1841,1068.3879 L559.1841,1069.9829 Z " fill="#FFFFFF"/><text fill="#EEEEEE" font-family="'Verdana'" font-size="11.4583" lengthAdjust="spacing" textLength="57.3196" x="580.9226" y="1069.2622">schedules</text><line style="stroke:#304D6D;stroke-width:1.0417;" x1="518.2292" x2="670.4081" y1="1082.3812" y2="1082.3812"/><ellipse cx="528.6458" cy="1099.9878" fill="none" rx="3.125" ry="3.125" style="stroke:#304D6D;stroke-width:1.0417;"/><text fill="#EEEEEE" font-family="'Verdana'" font-size="11.4583" lengthAdjust="spacing" textLength="75.3016" x="542.1875" y="1102.3921">_id : ObjectId</text><line style="stroke:#304D6D;stroke-width:1.0417;" x1="518.2292" x2="670.4081" y1="1114.4694" y2="1114.4694"/><text fill="#EEEEEE" font-family="'Verdana'" font-size="11.4583" lengthAdjust="spacing" textLength="116.8325" x="528.6458" y="1134.4803">subject_id : ObjectId</text><text fill="#EEEEEE" font-family="'Verdana'" font-size="11.4583" lengthAdjust="spacing" textLength="103.746" x="528.6458" y="1158.2352">class_id : ObjectId</text><text fill="#EEEEEE" font-family="'Verdana'" font-size="11.4583" lengthAdjust="spacing" textLength="129.7958" x="528.6458" y="1181.9901">giao_vien_id : ObjectId</text><text fill="#EEEEEE" font-family="'Verdana'" font-size="11.4583" lengthAdjust="spacing" textLength="114.3987" x="528.6458" y="1205.7449">loai_lich : "hoc | thi"</text><text fill="#EEEEEE" font-family="'Verdana'" font-size="11.4583" lengthAdjust="spacing" textLength="66.8701" x="528.6458" y="1229.4998">ngay : Date</text><text fill="#EEEEEE" font-family="'Verdana'" font-size="11.4583" lengthAdjust="spacing" textLength="128.1957" x="528.6458" y="1253.2547">tiet_bat_dau : Number</text><text fill="#EEEEEE" font-family="'Verdana'" font-size="11.4583" lengthAdjust="spacing" textLength="131.3456" x="528.6458" y="1277.0096">tiet_ket_thuc : Number</text><text fill="#EEEEEE" font-family="'Verdana'" font-size="11.4583" lengthAdjust="spacing" textLength="107.724" x="528.6458" y="1300.7645">phong_hoc : String</text><text fill="#EEEEEE" font-family="'Verdana'" font-size="11.4583" lengthAdjust="spacing" textLength="89.6133" x="528.6458" y="1324.5193">ghi_chu : String</text><text fill="#EEEEEE" font-family="'Verdana'" font-size="11.4583" lengthAdjust="spacing" textLength="99.673" x="528.6458" y="1348.2742">created_at : Date</text><text fill="#EEEEEE" font-family="'Verdana'" font-size="11.4583" lengthAdjust="spacing" textLength="103.4215" x="528.6458" y="1372.0291">updated_at : Date</text></g><!--class student_score--><g class="entity" data-entity="student_score" data-source-line="91" data-uid="ent0009" id="entity_student_score"><rect fill="url(#gipy9bulphxnp1)" height="264.6322" rx="4.1667" ry="4.1667" style="stroke:#304D6D;stroke-width:1.0417;" width="182.7179" x="201.0417" y="1459.1471"/><rect fill="url(#gipy9bulphxnp2)" height="34.1715" rx="4.1667" ry="4.1667" style="stroke:url(#gipy9bulphxnp2);stroke-width:1.0417;" width="182.7179" x="201.0417" y="1459.1471"/><rect fill="url(#gipy9bulphxnp2)" height="4.1667" style="stroke:url(#gipy9bulphxnp2);stroke-width:1.0417;" width="182.7179" x="201.0417" y="1489.152"/><rect fill="none" height="264.6322" rx="4.1667" ry="4.1667" style="stroke:#304D6D;stroke-width:1.0417;" width="182.7179" x="201.0417" y="1459.1471"/><ellipse cx="242.8407" cy="1476.2329" fill="none" rx="10.4167" ry="10.4167" style="stroke:#304D6D;stroke-width:1.0417;"/><path d="M245.3797,1480.9204 L239.6994,1480.9204 L239.6994,1471.8058 L245.3797,1471.8058 L245.3797,1473.4009 L241.506,1473.4009 L241.506,1475.354 L245.0054,1475.354 L245.0054,1476.9491 L241.506,1476.9491 L241.506,1479.3254 L245.3797,1479.3254 L245.3797,1480.9204 Z " fill="#FFFFFF"/><text fill="#EEEEEE" font-family="'Verdana'" font-size="11.4583" lengthAdjust="spacing" textLength="80.572" x="267.6386" y="1480.1997">student_score</text><line style="stroke:#304D6D;stroke-width:1.0417;" x1="202.0833" x2="382.7179" y1="1493.3187" y2="1493.3187"/><ellipse cx="212.5" cy="1510.9253" fill="none" rx="3.125" ry="3.125" style="stroke:#304D6D;stroke-width:1.0417;"/><text fill="#EEEEEE" font-family="'Verdana'" font-size="11.4583" lengthAdjust="spacing" textLength="75.3016" x="226.0417" y="1513.3296">_id : ObjectId</text><line style="stroke:#304D6D;stroke-width:1.0417;" x1="202.0833" x2="382.7179" y1="1525.4069" y2="1525.4069"/><text fill="#EEEEEE" font-family="'Verdana'" font-size="11.4583" lengthAdjust="spacing" textLength="119.104" x="212.5" y="1545.4178">student_id : ObjectId</text><text fill="#EEEEEE" font-family="'Verdana'" font-size="11.4583" lengthAdjust="spacing" textLength="116.8325" x="212.5" y="1569.1727">subject_id : ObjectId</text><text fill="#EEEEEE" font-family="'Verdana'" font-size="11.4583" lengthAdjust="spacing" textLength="159.8012" x="212.5" y="1592.9276">diem_chuyen_can : Number</text><text fill="#EEEEEE" font-family="'Verdana'" font-size="11.4583" lengthAdjust="spacing" textLength="135.4579" x="212.5" y="1616.6824">diem_giua_ky : Number</text><text fill="#EEEEEE" font-family="'Verdana'" font-size="11.4583" lengthAdjust="spacing" textLength="134.4732" x="212.5" y="1640.4373">diem_cuoi_ky : Number</text><text fill="#EEEEEE" font-family="'Verdana'" font-size="11.4583" lengthAdjust="spacing" textLength="117.6102" x="212.5" y="1664.1922">diem_tong : Number</text><text fill="#EEEEEE" font-family="'Verdana'" font-size="11.4583" lengthAdjust="spacing" textLength="99.673" x="212.5" y="1687.9471">created_at : Date</text><text fill="#EEEEEE" font-family="'Verdana'" font-size="11.4583" lengthAdjust="spacing" textLength="103.4215" x="212.5" y="1711.702">updated_at : Date</text></g><!--class attendance--><g class="entity" data-entity="attendance" data-source-line="104" data-uid="ent0010" id="entity_attendance"><rect fill="url(#gipy9bulphxnp1)" height="264.6322" rx="4.1667" ry="4.1667" style="stroke:#304D6D;stroke-width:1.0417;" width="152.7125" x="517.7083" y="1459.1471"/><rect fill="url(#gipy9bulphxnp2)" height="34.1715" rx="4.1667" ry="4.1667" style="stroke:url(#gipy9bulphxnp2);stroke-width:1.0417;" width="152.7125" x="517.7083" y="1459.1471"/><rect fill="url(#gipy9bulphxnp2)" height="4.1667" style="stroke:url(#gipy9bulphxnp2);stroke-width:1.0417;" width="152.7125" x="517.7083" y="1489.152"/><rect fill="none" height="264.6322" rx="4.1667" ry="4.1667" style="stroke:#304D6D;stroke-width:1.0417;" width="152.7125" x="517.7083" y="1459.1471"/><ellipse cx="552.9109" cy="1476.2329" fill="none" rx="10.4167" ry="10.4167" style="stroke:#304D6D;stroke-width:1.0417;"/><path d="M555.45,1480.9204 L549.7697,1480.9204 L549.7697,1471.8058 L555.45,1471.8058 L555.45,1473.4009 L551.5763,1473.4009 L551.5763,1475.354 L555.0757,1475.354 L555.0757,1476.9491 L551.5763,1476.9491 L551.5763,1479.3254 L555.45,1479.3254 L555.45,1480.9204 Z " fill="#FFFFFF"/><text fill="#EEEEEE" font-family="'Verdana'" font-size="11.4583" lengthAdjust="spacing" textLength="65.2252" x="576.243" y="1480.1997">attendance</text><line style="stroke:#304D6D;stroke-width:1.0417;" x1="518.75" x2="669.3792" y1="1493.3187" y2="1493.3187"/><ellipse cx="529.1667" cy="1510.9253" fill="none" rx="3.125" ry="3.125" style="stroke:#304D6D;stroke-width:1.0417;"/><text fill="#EEEEEE" font-family="'Verdana'" font-size="11.4583" lengthAdjust="spacing" textLength="75.3016" x="542.7083" y="1513.3296">_id : ObjectId</text><line style="stroke:#304D6D;stroke-width:1.0417;" x1="518.75" x2="669.3792" y1="1525.4069" y2="1525.4069"/><text fill="#EEEEEE" font-family="'Verdana'" font-size="11.4583" lengthAdjust="spacing" textLength="119.104" x="529.1667" y="1545.4178">student_id : ObjectId</text><text fill="#EEEEEE" font-family="'Verdana'" font-size="11.4583" lengthAdjust="spacing" textLength="116.8325" x="529.1667" y="1569.1727">subject_id : ObjectId</text><text fill="#EEEEEE" font-family="'Verdana'" font-size="11.4583" lengthAdjust="spacing" textLength="129.7958" x="529.1667" y="1592.9276">giao_vien_id : ObjectId</text><text fill="#EEEEEE" font-family="'Verdana'" font-size="11.4583" lengthAdjust="spacing" textLength="93.1717" x="529.1667" y="1616.6824">ngay_hoc : Date</text><text fill="#EEEEEE" font-family="'Verdana'" font-size="11.4583" lengthAdjust="spacing" textLength="103.7908" x="529.1667" y="1640.4373">trang_thai : String</text><text fill="#EEEEEE" font-family="'Verdana'" font-size="11.4583" lengthAdjust="spacing" textLength="71.7209" x="529.1667" y="1664.1922">li_do : String</text><text fill="#EEEEEE" font-family="'Verdana'" font-size="11.4583" lengthAdjust="spacing" textLength="99.673" x="529.1667" y="1687.9471">created_at : Date</text><text fill="#EEEEEE" font-family="'Verdana'" font-size="11.4583" lengthAdjust="spacing" textLength="103.4215" x="529.1667" y="1711.702">updated_at : Date</text></g><!--class payments--><g class="entity" data-entity="payments" data-source-line="117" data-uid="ent0011" id="entity_payments"><rect fill="url(#gipy9bulphxnp1)" height="288.387" rx="4.1667" ry="4.1667" style="stroke:#304D6D;stroke-width:1.0417;" width="146.4071" x="17.7083" y="1447.168"/><rect fill="url(#gipy9bulphxnp2)" height="34.1715" rx="4.1667" ry="4.1667" style="stroke:url(#gipy9bulphxnp2);stroke-width:1.0417;" width="146.4071" x="17.7083" y="1447.168"/><rect fill="url(#gipy9bulphxnp2)" height="4.1667" style="stroke:url(#gipy9bulphxnp2);stroke-width:1.0417;" width="146.4071" x="17.7083" y="1477.1729"/><rect fill="none" height="288.387" rx="4.1667" ry="4.1667" style="stroke:#304D6D;stroke-width:1.0417;" width="146.4071" x="17.7083" y="1447.168"/><ellipse cx="53.7695" cy="1464.2537" fill="none" rx="10.4167" ry="10.4167" style="stroke:#304D6D;stroke-width:1.0417;"/><path d="M56.3085,1468.9412 L50.6282,1468.9412 L50.6282,1459.8267 L56.3085,1459.8267 L56.3085,1461.4217 L52.4348,1461.4217 L52.4348,1463.3748 L55.9342,1463.3748 L55.9342,1464.9699 L52.4348,1464.9699 L52.4348,1467.3462 L56.3085,1467.3462 L56.3085,1468.9412 Z " fill="#FFFFFF"/><text fill="#EEEEEE" font-family="'Verdana'" font-size="11.4583" lengthAdjust="spacing" textLength="57.0119" x="77.2923" y="1468.2205">payments</text><line style="stroke:#304D6D;stroke-width:1.0417;" x1="18.75" x2="163.0737" y1="1481.3395" y2="1481.3395"/><ellipse cx="29.1667" cy="1498.9461" fill="none" rx="3.125" ry="3.125" style="stroke:#304D6D;stroke-width:1.0417;"/><text fill="#EEEEEE" font-family="'Verdana'" font-size="11.4583" lengthAdjust="spacing" textLength="75.3016" x="42.7083" y="1501.3504">_id : ObjectId</text><line style="stroke:#304D6D;stroke-width:1.0417;" x1="18.75" x2="163.0737" y1="1513.4277" y2="1513.4277"/><text fill="#EEEEEE" font-family="'Verdana'" font-size="11.4583" lengthAdjust="spacing" textLength="119.104" x="29.1667" y="1533.4386">student_id : ObjectId</text><text fill="#EEEEEE" font-family="'Verdana'" font-size="11.4583" lengthAdjust="spacing" textLength="116.8325" x="29.1667" y="1557.1935">subject_id : ObjectId</text><text fill="#EEEEEE" font-family="'Verdana'" font-size="11.4583" lengthAdjust="spacing" textLength="97.8714" x="29.1667" y="1580.9484">so_tien : Number</text><text fill="#EEEEEE" font-family="'Verdana'" font-size="11.4583" lengthAdjust="spacing" textLength="119.7306" x="29.1667" y="1604.7033">phuong_thuc : String</text><text fill="#EEEEEE" font-family="'Verdana'" font-size="11.4583" lengthAdjust="spacing" textLength="123.4904" x="29.1667" y="1628.4582">ma_giao_dich : String</text><text fill="#EEEEEE" font-family="'Verdana'" font-size="11.4583" lengthAdjust="spacing" textLength="103.7908" x="29.1667" y="1652.213">trang_thai : String</text><text fill="#EEEEEE" font-family="'Verdana'" font-size="11.4583" lengthAdjust="spacing" textLength="85.4899" x="29.1667" y="1675.9679">dich_vu: String</text><text fill="#EEEEEE" font-family="'Verdana'" font-size="11.4583" lengthAdjust="spacing" textLength="99.673" x="29.1667" y="1699.7228">created_at : Date</text><text fill="#EEEEEE" font-family="'Verdana'" font-size="11.4583" lengthAdjust="spacing" textLength="103.4215" x="29.1667" y="1723.4777">updated_at : Date</text></g><!--link faculties to majors--><g class="link" data-entity-1="faculties" data-entity-2="majors" data-source-line="131" data-uid="lnk12" id="link_faculties_majors"><path codeLine="131" d="M151.5625,265.1888 C151.5625,306.4284 151.5625,329.2096 151.5625,371.9388" fill="none" id="faculties-majors" style="stroke:#446E9B;stroke-width:3.125;"/><line style="stroke:#446E9B;stroke-width:3.125;" x1="147.3958" x2="155.7292" y1="261.0221" y2="261.0221"/><line style="stroke:#446E9B;stroke-width:3.125;" x1="147.3958" x2="155.7292" y1="264.1471" y2="264.1471"/><line style="stroke:#446E9B;stroke-width:3.125;" x1="151.5625" x2="151.5625" y1="265.1888" y2="256.8555"/><line style="stroke:#446E9B;stroke-width:3.125;" x1="151.5625" x2="157.8125" y1="382.3555" y2="390.6888"/><line style="stroke:#446E9B;stroke-width:3.125;" x1="151.5625" x2="145.3125" y1="382.3555" y2="390.6888"/><line style="stroke:#446E9B;stroke-width:3.125;" x1="151.5625" x2="151.5625" y1="382.3555" y2="390.6888"/><ellipse cx="151.5625" cy="376.1055" fill="none" rx="4.1667" ry="4.1667" style="stroke:#446E9B;stroke-width:3.125;"/></g><!--link majors to classes--><g class="link" data-entity-1="majors" data-entity-2="classes" data-source-line="132" data-uid="lnk13" id="link_majors_classes"><path codeLine="132" d="M218.2826,591.7754 C249.6784,640.2129 273.3228,676.7047 306.6145,728.0692" fill="none" id="majors-classes" style="stroke:#446E9B;stroke-width:3.125;"/><line style="stroke:#446E9B;stroke-width:3.125;" x1="212.5199" x2="219.5127" y1="590.5453" y2="586.0127"/><line style="stroke:#446E9B;stroke-width:3.125;" x1="214.2196" x2="221.2124" y1="593.1676" y2="588.635"/><line style="stroke:#446E9B;stroke-width:3.125;" x1="218.2826" x2="213.75" y1="591.7754" y2="584.7826"/><line style="stroke:#446E9B;stroke-width:3.125;" x1="312.2801" x2="322.0572" y1="736.8104" y2="740.4041"/><line style="stroke:#446E9B;stroke-width:3.125;" x1="312.2801" x2="311.5678" y1="736.8104" y2="747.2027"/><line style="stroke:#446E9B;stroke-width:3.125;" x1="312.2801" x2="316.8125" y1="736.8104" y2="743.8034"/><ellipse cx="308.8807" cy="731.5657" fill="none" rx="4.1667" ry="4.1667" style="stroke:#446E9B;stroke-width:3.125;"/></g><!--link users to classes--><g class="link" data-entity-1="users" data-entity-2="classes" data-source-line="133" data-uid="lnk14" id="link_users_classes"><path codeLine="133" d="M394.2708,663.8763 C394.2708,693.6367 394.2708,697.0221 394.2708,725.1367" fill="none" id="users-classes" style="stroke:#446E9B;stroke-width:3.125;"/><line style="stroke:#446E9B;stroke-width:3.125;" x1="390.1042" x2="398.4375" y1="659.7096" y2="659.7096"/><line style="stroke:#446E9B;stroke-width:3.125;" x1="390.1042" x2="398.4375" y1="662.8346" y2="662.8346"/><line style="stroke:#446E9B;stroke-width:3.125;" x1="394.2708" x2="394.2708" y1="663.8763" y2="655.543"/><line style="stroke:#446E9B;stroke-width:3.125;" x1="394.2708" x2="400.5208" y1="735.5534" y2="743.8867"/><line style="stroke:#446E9B;stroke-width:3.125;" x1="394.2708" x2="388.0208" y1="735.5534" y2="743.8867"/><line style="stroke:#446E9B;stroke-width:3.125;" x1="394.2708" x2="394.2708" y1="735.5534" y2="743.8867"/><ellipse cx="394.2708" cy="729.3034" fill="none" rx="4.1667" ry="4.1667" style="stroke:#446E9B;stroke-width:3.125;"/><text fill="#FFFFFF" font-family="'Verdana'" font-size="12.5" lengthAdjust="spacing" textLength="127.0203" x="400.5208" y="704.6041">giao viên chủ nhiệm</text></g><!--link classes to student_study--><g class="link" data-entity-1="classes" data-entity-2="student_study" data-source-line="134" data-uid="lnk15" id="link_classes_student_study"><path codeLine="134" d="M339.4039,992.339 C325.6539,1024.1723 321.4497,1033.8945 307.4289,1066.332" fill="none" id="classes-student_study" style="stroke:#446E9B;stroke-width:3.125;"/><line style="stroke:#446E9B;stroke-width:3.125;" x1="337.231" x2="344.8812" y1="986.8617" y2="990.1661"/><line style="stroke:#446E9B;stroke-width:3.125;" x1="335.9919" x2="343.6421" y1="989.7305" y2="993.0349"/><line style="stroke:#446E9B;stroke-width:3.125;" x1="339.4039" x2="342.7083" y1="992.339" y2="984.6888"/><line style="stroke:#446E9B;stroke-width:3.125;" x1="303.2959" x2="305.7266" y1="1075.8936" y2="1086.0227"/><line style="stroke:#446E9B;stroke-width:3.125;" x1="303.2959" x2="294.2526" y1="1075.8936" y2="1081.0632"/><line style="stroke:#446E9B;stroke-width:3.125;" x1="303.2959" x2="299.9896" y1="1075.8936" y2="1083.543"/><ellipse cx="305.7757" cy="1070.1566" fill="none" rx="4.1667" ry="4.1667" style="stroke:#446E9B;stroke-width:3.125;"/></g><!--link users to student_study--><g class="link" data-entity-1="users" data-entity-2="student_study" data-source-line="135" data-uid="lnk16" id="link_users_student_study"><path codeLine="135" d="M282.875,612.2721 C252.25,653.1055 227.8438,694.5221 211.9792,744.043 C176.5417,854.6263 186.2928,968.7111 205.3032,1064.9298" fill="none" id="users-student_study" style="stroke:#446E9B;stroke-width:3.125;"/><line style="stroke:#446E9B;stroke-width:3.125;" x1="282.0417" x2="288.7083" y1="606.4388" y2="611.4388"/><line style="stroke:#446E9B;stroke-width:3.125;" x1="280.1667" x2="286.8333" y1="608.9388" y2="613.9388"/><line style="stroke:#446E9B;stroke-width:3.125;" x1="282.875" x2="287.875" y1="612.2721" y2="605.6055"/><line style="stroke:#446E9B;stroke-width:3.125;" x1="207.3223" x2="215.069" y1="1075.1489" y2="1082.1128"/><line style="stroke:#446E9B;stroke-width:3.125;" x1="207.3223" x2="202.806" y1="1075.1489" y2="1084.5356"/><line style="stroke:#446E9B;stroke-width:3.125;" x1="207.3223" x2="208.9375" y1="1075.1489" y2="1083.3242"/><ellipse cx="206.1108" cy="1069.0175" fill="none" rx="4.1667" ry="4.1667" style="stroke:#446E9B;stroke-width:3.125;"/><text fill="#FFFFFF" font-family="'Verdana'" font-size="12.5" lengthAdjust="spacing" textLength="56.2866" x="218.2292" y="869.1874">sinh viên</text></g><!--link subjects to schedules--><g class="link" data-entity-1="subjects" data-entity-2="schedules" data-source-line="136" data-uid="lnk17" id="link_subjects_schedules"><path codeLine="136" d="M594.2708,981.4388 C594.2708,1005.1992 594.2708,1003.8346 594.2708,1029.3242" fill="none" id="subjects-schedules" style="stroke:#446E9B;stroke-width:3.125;"/><line style="stroke:#446E9B;stroke-width:3.125;" x1="590.1042" x2="598.4375" y1="977.2721" y2="977.2721"/><line style="stroke:#446E9B;stroke-width:3.125;" x1="590.1042" x2="598.4375" y1="980.3971" y2="980.3971"/><line style="stroke:#446E9B;stroke-width:3.125;" x1="594.2708" x2="594.2708" y1="981.4388" y2="973.1055"/><line style="stroke:#446E9B;stroke-width:3.125;" x1="594.2708" x2="600.5208" y1="1039.7409" y2="1048.0742"/><line style="stroke:#446E9B;stroke-width:3.125;" x1="594.2708" x2="588.0208" y1="1039.7409" y2="1048.0742"/><line style="stroke:#446E9B;stroke-width:3.125;" x1="594.2708" x2="594.2708" y1="1039.7409" y2="1048.0742"/><ellipse cx="594.2708" cy="1033.4909" fill="none" rx="4.1667" ry="4.1667" style="stroke:#446E9B;stroke-width:3.125;"/></g><!--link classes to schedules--><g class="link" data-entity-1="classes" data-entity-2="schedules" data-source-line="137" data-uid="lnk18" id="link_classes_schedules"><path codeLine="137" d="M466.6815,991.9211 C484.2231,1022.567 489.7587,1032.2596 507.717,1063.6346" fill="none" id="classes-schedules" style="stroke:#446E9B;stroke-width:3.125;"/><line style="stroke:#446E9B;stroke-width:3.125;" x1="460.9954" x2="468.2277" y1="990.3749" y2="986.2351"/><line style="stroke:#446E9B;stroke-width:3.125;" x1="462.5478" x2="469.7801" y1="993.087" y2="988.9472"/><line style="stroke:#446E9B;stroke-width:3.125;" x1="466.6815" x2="462.5417" y1="991.9211" y2="984.6888"/><line style="stroke:#446E9B;stroke-width:3.125;" x1="512.8916" x2="522.4556" y1="1072.6751" y2="1076.8028"/><line style="stroke:#446E9B;stroke-width:3.125;" x1="512.8916" x2="511.6069" y1="1072.6751" y2="1083.0123"/><line style="stroke:#446E9B;stroke-width:3.125;" x1="512.8916" x2="517.0313" y1="1072.6751" y2="1079.9076"/><ellipse cx="509.7868" cy="1067.2508" fill="none" rx="4.1667" ry="4.1667" style="stroke:#446E9B;stroke-width:3.125;"/></g><!--link users to schedules--><g class="link" data-entity-1="users" data-entity-2="schedules" data-source-line="138" data-uid="lnk19" id="link_users_schedules"><path codeLine="138" d="M507.6236,555.4372 C572.884,599.958 643.875,661.8451 680.7292,744.043 C723.6979,839.8763 709.2524,938.0962 677.4503,1030.9503" fill="none" id="users-schedules" style="stroke:#446E9B;stroke-width:3.125;"/><line style="stroke:#446E9B;stroke-width:3.125;" x1="501.8334" x2="506.5297" y1="556.531" y2="549.647"/><line style="stroke:#446E9B;stroke-width:3.125;" x1="504.4149" x2="509.1112" y1="558.2921" y2="551.4081"/><line style="stroke:#446E9B;stroke-width:3.125;" x1="507.6236" x2="500.7396" y1="555.4372" y2="550.7409"/><line style="stroke:#446E9B;stroke-width:3.125;" x1="674.0751" x2="677.2878" y1="1040.805" y2="1050.7139"/><line style="stroke:#446E9B;stroke-width:3.125;" x1="674.0751" x2="665.4622" y1="1040.805" y2="1046.6637"/><line style="stroke:#446E9B;stroke-width:3.125;" x1="674.0751" x2="671.375" y1="1040.805" y2="1048.6888"/><ellipse cx="676.1003" cy="1034.8922" fill="none" rx="4.1667" ry="4.1667" style="stroke:#446E9B;stroke-width:3.125;"/><text fill="#FFFFFF" font-family="'Verdana'" font-size="12.5" lengthAdjust="spacing" textLength="57.1716" x="710.9375" y="869.1874">giáo viên</text></g><!--link schedules to attendance--><g class="link" data-entity-1="schedules" data-entity-2="attendance" data-source-line="139" data-uid="lnk20" id="link_schedules_attendance"><path codeLine="139" d="M594.2708,1392.0742 C594.2708,1417.3451 594.2708,1416.0221 594.2708,1440.3867" fill="none" id="schedules-attendance" style="stroke:#446E9B;stroke-width:3.125;"/><line style="stroke:#446E9B;stroke-width:3.125;" x1="590.1042" x2="598.4375" y1="1387.9076" y2="1387.9076"/><line style="stroke:#446E9B;stroke-width:3.125;" x1="590.1042" x2="598.4375" y1="1391.0326" y2="1391.0326"/><line style="stroke:#446E9B;stroke-width:3.125;" x1="594.2708" x2="594.2708" y1="1392.0742" y2="1383.7409"/><line style="stroke:#446E9B;stroke-width:3.125;" x1="594.2708" x2="600.5208" y1="1450.8034" y2="1459.1367"/><line style="stroke:#446E9B;stroke-width:3.125;" x1="594.2708" x2="588.0208" y1="1450.8034" y2="1459.1367"/><line style="stroke:#446E9B;stroke-width:3.125;" x1="594.2708" x2="594.2708" y1="1450.8034" y2="1459.1367"/><ellipse cx="594.2708" cy="1444.5534" fill="none" rx="4.1667" ry="4.1667" style="stroke:#446E9B;stroke-width:3.125;"/></g><!--link student_study to student_score--><g class="link" data-entity-1="student_study" data-entity-2="student_score" data-source-line="140" data-uid="lnk21" id="link_student_study_student_score"><path codeLine="140" d="M261.5412,1356.6181 C266.2495,1392.5452 267.8337,1404.6187 272.5421,1440.5354" fill="none" id="student_study-student_score" style="stroke:#446E9B;stroke-width:3.125;"/><line style="stroke:#446E9B;stroke-width:3.125;" x1="256.8684" x2="265.1311" y1="1353.0282" y2="1351.9454"/><line style="stroke:#446E9B;stroke-width:3.125;" x1="257.2745" x2="265.5372" y1="1356.1267" y2="1355.0439"/><line style="stroke:#446E9B;stroke-width:3.125;" x1="261.5412" x2="260.4583" y1="1356.6181" y2="1348.3555"/><line style="stroke:#446E9B;stroke-width:3.125;" x1="273.896" x2="281.1761" y1="1450.8637" y2="1458.3139"/><line style="stroke:#446E9B;stroke-width:3.125;" x1="273.896" x2="268.7822" y1="1450.8637" y2="1459.9387"/><line style="stroke:#446E9B;stroke-width:3.125;" x1="273.896" x2="274.9792" y1="1450.8637" y2="1459.1263"/><ellipse cx="273.0836" cy="1444.6667" fill="none" rx="4.1667" ry="4.1667" style="stroke:#446E9B;stroke-width:3.125;"/></g><!--link student_study to payments--><g class="link" data-entity-1="student_study" data-entity-2="payments" data-source-line="141" data-uid="lnk22" id="link_student_study_payments"><path codeLine="141" d="M186.5748,1356.073 C173.5644,1388.0105 169.8135,1397.2307 156.5948,1429.6786" fill="none" id="student_study-payments" style="stroke:#446E9B;stroke-width:3.125;"/><line style="stroke:#446E9B;stroke-width:3.125;" x1="184.288" x2="192.0056" y1="1350.6423" y2="1353.7862"/><line style="stroke:#446E9B;stroke-width:3.125;" x1="183.1091" x2="190.8266" y1="1353.5364" y2="1356.6803"/><line style="stroke:#446E9B;stroke-width:3.125;" x1="186.5748" x2="189.7188" y1="1356.073" y2="1348.3555"/><line style="stroke:#446E9B;stroke-width:3.125;" x1="152.6648" x2="155.309" y1="1439.3255" y2="1449.401"/><line style="stroke:#446E9B;stroke-width:3.125;" x1="152.6648" x2="143.7327" y1="1439.3255" y2="1444.685"/><line style="stroke:#446E9B;stroke-width:3.125;" x1="152.6648" x2="149.5208" y1="1439.3255" y2="1447.043"/><ellipse cx="155.0228" cy="1433.5373" fill="none" rx="4.1667" ry="4.1667" style="stroke:#446E9B;stroke-width:3.125;"/></g><!--SRC=[hLRDZjCm4BxdAKnEWDGBnpsYbTYLe0WjxDMQsYRsDh6Zn2wgjbn1uiGBS80B4ez0ZtsIlicEdPyc_Q5bqqEJzfknFT_CD-C-iL9aWfGvC9729BBAfe9ShPTVo7jyVX-_8ky-hF_-6fFNgn_avdfyHMwlLz_6vEaRenDp-PBSldWMHKBZmZc9NIcACYRt4I7F2LMSN92tapl1x3L7Q3J2XtVHW6TUa1jRA9qWbaDPVZ85xsA5IRrF33nJcYo85S2aAF1RQHt70sDqaePQeRlBH0OgxG8bjzsVEe4vBPMM25w25GXn1PH9rVLAb57KLbujo0g12pW5krdhShw5VTvauoCmbrebZcG46T2fDD0zAqDYCEZm3EvCSSB9c90-JH_AZllmU5YAHJub5Qd9ZuOJWjv1cQ4pq5GQXi7cE-Qm4ne7qIXTsF047fdf2RCqNb2rqCOkcuZY897XsQvxXFht_D-nDguxsVG5Ep7pUuiKG0wUY-cIiGNeX5e9QXX570VSfSSaLHViH7g9mdXd2iktRKaDA9egvdibzYh2aIHLN8-KJSpOxvPEm29prwrqmAVuiTAnhY6NE4ctTPb8XL9nvz40CuLud0OE9OyhaVduvfWe1hfB9vWIvO1EvpiuSpXNz-0MKz05_vihM6mv3fgTcUXXFOIBfAfQK_czkauLvMPG7NEOP_YzF2-pC8-4xYlHcS30zRIO0Grfu9NuZ_Inzw8pznZ2xNr95elHoDoJwWwBgbS3rXT95FvhR86-DtsiPAPMVpHXShtyJRHKw-NNB8uQftfDRqRsj-kP_ARX7qFOD8wQAw1rRWRHpW6jeRzv0rVHhdwQTkVMKhjkP1trGzgEqxVuVfT6FGy0]--></g></svg>